<?xml version="1.0" standalone="no"?>
<!DOCTYPE svg PUBLIC "-//W3C//DTD SVG 20010904//EN"
 "http://www.w3.org/TR/2001/REC-SVG-20010904/DTD/svg10.dtd">
<svg version="1.0" xmlns="http://www.w3.org/2000/svg"
 width="1280.000000pt" height="1216.000000pt" viewBox="0 0 1280.000000 1216.000000"
 preserveAspectRatio="xMidYMid meet">
<g transform="translate(0.000000,1216.000000) scale(0.100000,-0.100000)"
fill="#000000" stroke="none">
<path d="M6255 12148 c-27 -5 -87 -15 -132 -24 -45 -8 -327 -81 -625 -162
l-543 -147 -675 -6 c-737 -6 -723 -5 -910 -70 -248 -85 -495 -263 -643 -462
-44 -59 -56 -69 -101 -82 -28 -8 -406 -109 -841 -225 -861 -231 -872 -234
-992 -290 -298 -139 -543 -393 -672 -696 -89 -208 -140 -508 -111 -651 5 -26
16 -87 25 -135 9 -47 119 -470 245 -940 125 -469 364 -1359 530 -1978 166
-619 400 -1494 521 -1945 469 -1747 523 -1951 704 -2625 102 -382 199 -735
216 -784 111 -325 349 -599 659 -760 58 -30 148 -69 199 -86 111 -36 346 -80
427 -80 131 1 361 56 1583 384 690 185 1266 336 1281 336 15 0 591 -151 1281
-336 1222 -328 1452 -383 1582 -384 73 0 263 33 382 66 122 34 331 138 436
218 215 163 383 393 468 642 17 49 198 712 402 1474 203 762 429 1602 500
1868 71 265 188 700 259 967 72 267 189 704 261 973 140 525 325 1214 603
2251 97 360 183 693 191 740 9 47 20 108 25 134 29 143 -22 443 -111 651 -141
331 -407 590 -749 730 -36 15 -434 126 -885 247 -451 121 -843 226 -871 234
-45 13 -57 22 -102 83 -146 197 -397 377 -642 461 -186 65 -173 64 -915 71
l-680 6 -540 147 c-297 81 -580 154 -630 163 -49 8 -114 19 -144 24 -66 12
-197 11 -266 -2z m-1199 -1162 c3 -8 -47 -209 -111 -447 -64 -239 -165 -616
-225 -839 -60 -223 -226 -844 -370 -1380 -144 -536 -360 -1342 -480 -1790
-120 -448 -271 -1011 -335 -1250 -132 -497 -133 -500 -146 -500 -5 0 -9 971
-9 2478 0 2692 -3 2545 55 2747 34 118 127 308 206 418 34 48 106 129 159 181
240 230 515 353 870 389 19 2 113 5 208 5 139 2 174 -1 178 -12z m2113 -121
c41 -9 281 -72 535 -140 3266 -875 3053 -817 3146 -851 535 -192 904 -720 903
-1294 0 -81 -6 -171 -16 -225 -9 -49 -105 -418 -212 -820 -108 -401 -273
-1016 -366 -1365 -94 -349 -228 -851 -299 -1115 -71 -264 -271 -1011 -445
-1660 -347 -1294 -353 -1314 -475 -1497 -224 -338 -550 -547 -955 -614 -129
-21 -361 -14 -485 15 -47 10 -557 146 -1135 301 -577 155 -1369 367 -1759 471
-390 105 -738 201 -773 214 -454 171 -781 560 -880 1045 -21 104 -24 372 -5
475 13 67 76 310 346 1315 167 625 396 1478 556 2075 72 270 190 708 261 975
72 267 198 737 280 1045 204 760 202 753 274 900 202 412 558 677 1025 761 99
18 377 11 479 -11z m-4721 -3695 c1 -1686 0 -3076 -3 -3089 -4 -16 -10 -20
-16 -14 -5 5 -63 210 -129 454 -65 244 -304 1135 -530 1979 -227 844 -443
1652 -481 1795 -89 331 -102 417 -96 605 7 207 44 361 132 547 126 268 361
506 630 641 128 64 408 153 465 149 l25 -2 3 -3065z"/>
<path d="M8900 9719 c-329 -758 -894 -1553 -1450 -2042 -438 -385 -822 -585
-1233 -641 -64 -9 -148 -26 -185 -38 -352 -108 -655 -471 -768 -923 -35 -138
-43 -356 -20 -507 64 -406 312 -753 681 -953 333 -180 752 -199 1110 -50 170
70 297 156 438 298 49 49 91 87 94 84 8 -8 -151 -310 -248 -472 -233 -388
-490 -731 -792 -1055 -69 -74 -122 -138 -119 -141 11 -10 1483 -402 1488 -396
3 3 -8 58 -25 123 -119 461 -173 928 -170 1488 1 330 7 429 24 424 5 -2 17
-39 26 -83 91 -448 425 -824 859 -969 143 -48 257 -66 415 -66 361 0 674 129
925 380 190 190 305 404 365 680 25 115 31 402 11 516 -34 198 -111 377 -214
501 -32 37 -107 107 -166 155 -189 150 -289 260 -423 461 -81 122 -199 353
-262 515 -295 746 -412 1733 -315 2662 8 83 14 156 12 162 -2 6 -28 -45 -58
-113z"/>
</g>
</svg>
